<?xml version="1.0" standalone="no"?>
<!DOCTYPE svg PUBLIC "-//W3C//DTD SVG 20010904//EN"
 "http://www.w3.org/TR/2001/REC-SVG-20010904/DTD/svg10.dtd">
<svg version="1.0" xmlns="http://www.w3.org/2000/svg"
 width="1024.000000pt" height="1024.000000pt" viewBox="0 0 1024.000000 1024.000000"
 preserveAspectRatio="xMidYMid meet">
<metadata>
Created by potrace 1.11, written by Peter Selinger 2001-2013
</metadata>
<g transform="translate(0.000000,1024.000000) scale(0.100000,-0.100000)"
fill="#000000" stroke="none">
<path d="M2085 10224 c-421 -57 -821 -224 -1155 -482 -117 -91 -306 -277 -403
-397 -279 -346 -453 -754 -512 -1199 -13 -103 -15 -466 -15 -3026 0 -2559 2
-2923 15 -3027 142 -1086 992 -1936 2078 -2078 101 -13 302 -15 1373 -15
l1254 0 0 1768 0 1768 398 353 397 352 3 -2121 2 -2120 1255 0 c1070 0 1271 2
1372 15 1086 142 1936 992 2078 2078 13 104 15 468 15 3027 0 2559 -2 2923
-15 3027 -142 1086 -992 1936 -2078 2078 -104 13 -465 15 -3040 14 -2400 -1
-2940 -3 -3022 -15z m4896 -1815 c218 -22 388 -72 580 -171 412 -211 721 -612
818 -1060 106 -490 -16 -978 -340 -1365 -232 -276 -574 -471 -934 -533 -64
-11 -154 -20 -198 -20 l-82 0 -782 782 -783 783 0 81 c0 188 65 438 165 639
291 580 920 929 1556 864z m-633 -3011 c-4 -9 -3593 -3193 -3627 -3217 -35
-25 -84 -34 -129 -26 -31 6 -73 42 -257 224 -151 150 -234 224 -266 240 -60
28 -136 37 -195 22 -25 -7 -48 -10 -51 -7 -11 11 22 129 51 180 19 34 658 763
1671 1905 l1640 1849 583 -582 c320 -319 581 -584 580 -588z"/>
<path d="M6315 8095 c-34 -33 -34 -93 -2 -123 33 -31 96 -30 125 1 33 35 30
99 -4 126 -37 29 -89 27 -119 -4z"/>
<path d="M6785 8095 c-31 -30 -33 -82 -4 -119 16 -20 29 -26 60 -26 54 0 75
13 88 53 30 89 -79 158 -144 92z"/>
<path d="M7255 8095 c-31 -30 -33 -82 -4 -119 16 -20 29 -26 59 -26 53 0 68 8
86 42 46 88 -71 174 -141 103z"/>
<path d="M6100 7878 c-54 -29 -64 -95 -21 -139 60 -60 151 -21 151 65 0 57
-77 101 -130 74z"/>
<path d="M6570 7877 c-55 -28 -62 -108 -13 -147 84 -65 190 45 121 124 -28 31
-74 41 -108 23z"/>
<path d="M7038 7875 c-33 -18 -52 -72 -39 -108 22 -58 103 -76 146 -32 70 70
-20 188 -107 140z"/>
<path d="M7514 7876 c-36 -16 -44 -32 -44 -86 0 -30 6 -43 26 -59 61 -48 144
-10 144 67 0 66 -64 106 -126 78z"/>
<path d="M5845 7625 c-27 -26 -34 -80 -15 -115 15 -27 71 -43 105 -30 39 15
54 38 55 83 0 51 -35 87 -85 87 -25 0 -44 -8 -60 -25z"/>
<path d="M6315 7625 c-67 -66 2 -174 92 -144 40 13 53 34 53 88 0 31 -6 44
-26 60 -37 29 -89 27 -119 -4z"/>
<path d="M6785 7625 c-48 -47 -21 -135 44 -150 65 -14 125 56 102 118 -22 58
-103 76 -146 32z"/>
<path d="M7255 7624 c-68 -74 16 -185 105 -139 83 43 48 165 -47 165 -24 0
-41 -8 -58 -26z"/>
<path d="M7739 7637 c-44 -33 -50 -93 -15 -134 19 -22 32 -28 65 -28 50 0 79
26 88 78 5 31 1 40 -25 67 -33 32 -83 40 -113 17z"/>
<path d="M5601 7384 c-25 -31 -27 -64 -6 -103 16 -32 33 -41 78 -41 56 1 93
48 83 106 -9 43 -39 64 -92 64 -34 0 -47 -5 -63 -26z"/>
<path d="M6083 7395 c-42 -30 -39 -108 6 -142 17 -13 69 -17 96 -7 21 8 45 56
45 89 0 39 -41 75 -87 75 -21 0 -48 -7 -60 -15z"/>
<path d="M6562 7403 c-16 -6 -42 -56 -42 -82 0 -11 12 -33 26 -50 21 -25 33
-31 65 -31 78 0 117 82 68 144 -16 21 -28 26 -62 25 -23 0 -48 -3 -55 -6z"/>
<path d="M7027 7398 c-22 -18 -39 -66 -31 -92 29 -97 174 -83 174 17 0 53 -32
87 -84 87 -23 0 -50 -6 -59 -12z"/>
<path d="M7490 7390 c-31 -31 -28 -102 6 -129 61 -48 144 -10 144 67 0 53 -32
82 -88 82 -29 0 -48 -6 -62 -20z"/>
<path d="M7962 7387 c-51 -55 -12 -147 63 -147 76 0 116 97 62 148 -33 31 -96
30 -125 -1z"/>
<path d="M5845 7155 c-18 -18 -25 -35 -25 -65 0 -67 59 -105 121 -80 85 36 57
170 -36 170 -25 0 -44 -8 -60 -25z"/>
<path d="M6315 7155 c-18 -17 -25 -35 -25 -63 0 -67 59 -107 121 -82 85 36 57
170 -36 170 -25 0 -44 -8 -60 -25z"/>
<path d="M6805 7168 c-32 -17 -45 -39 -45 -79 0 -29 7 -43 31 -63 33 -28 53
-32 94 -16 31 12 55 64 48 103 -10 53 -78 83 -128 55z"/>
<path d="M7274 7168 c-51 -24 -57 -96 -14 -140 27 -26 36 -30 67 -25 52 9 78
38 78 88 0 69 -67 108 -131 77z"/>
<path d="M7729 7151 c-36 -37 -38 -79 -5 -118 19 -22 32 -28 66 -28 82 0 119
88 61 146 -20 20 -39 29 -61 29 -22 0 -41 -9 -61 -29z"/>
<path d="M5605 6915 c-54 -54 -16 -145 60 -145 48 0 70 13 85 49 25 62 -13
121 -80 121 -30 0 -47 -7 -65 -25z"/>
<path d="M6083 6925 c-30 -21 -39 -74 -19 -113 17 -34 33 -42 81 -42 52 0 80
29 80 85 0 37 -5 51 -24 66 -28 23 -88 25 -118 4z"/>
<path d="M6550 6920 c-27 -27 -35 -65 -20 -101 36 -85 170 -57 170 36 0 51
-36 85 -90 85 -26 0 -47 -7 -60 -20z"/>
<path d="M7028 6926 c-23 -17 -40 -64 -32 -90 20 -67 102 -89 149 -41 55 54
16 145 -62 145 -21 0 -46 -6 -55 -14z"/>
<path d="M7492 6917 c-15 -16 -22 -36 -22 -63 0 -53 31 -84 84 -84 75 0 113
83 65 144 -28 35 -95 37 -127 3z"/>
<path d="M7962 6917 c-31 -33 -30 -96 1 -125 33 -31 96 -30 125 1 31 33 30 96
-1 125 -33 31 -96 30 -125 -1z"/>
<path d="M5863 6700 c-45 -18 -59 -99 -24 -141 15 -19 29 -24 66 -24 56 0 85
28 85 80 0 47 -8 64 -41 80 -31 17 -54 18 -86 5z"/>
<path d="M6335 6699 c-32 -18 -45 -40 -45 -75 0 -47 9 -63 42 -80 39 -20 92
-11 113 19 20 29 19 90 -2 116 -21 25 -80 36 -108 20z"/>
<path d="M6805 6698 c-32 -19 -44 -41 -44 -78 0 -78 86 -118 145 -67 34 30 38
98 7 128 -24 24 -81 33 -108 17z"/>
<path d="M7259 6681 c-20 -20 -29 -39 -29 -61 0 -22 9 -41 29 -61 37 -36 79
-38 118 -5 22 19 28 32 28 66 0 82 -88 119 -146 61z"/>
<path d="M7729 6681 c-20 -20 -29 -39 -29 -61 0 -22 9 -41 29 -61 20 -20 39
-29 61 -29 22 0 41 9 61 29 20 20 29 39 29 61 0 22 -9 41 -29 61 -20 20 -39
29 -61 29 -22 0 -41 -9 -61 -29z"/>
<path d="M6092 6463 c-23 -9 -44 -64 -37 -99 7 -42 38 -64 88 -64 46 0 87 36
87 75 0 33 -24 81 -45 89 -19 7 -74 7 -93 -1z"/>
<path d="M6552 6450 c-29 -27 -37 -64 -22 -101 36 -85 170 -57 170 36 0 74
-94 115 -148 65z"/>
<path d="M7023 6448 c-29 -33 -35 -57 -22 -95 13 -40 34 -53 88 -53 49 0 81
35 81 87 0 73 -99 114 -147 61z"/>
<path d="M7492 6447 c-31 -33 -30 -96 1 -125 35 -33 99 -30 126 4 48 61 10
144 -67 144 -27 0 -45 -7 -60 -23z"/>
<path d="M7966 6449 c-21 -16 -26 -29 -26 -63 0 -56 30 -86 86 -86 54 0 84 31
84 87 0 50 -34 83 -85 83 -18 0 -44 -9 -59 -21z"/>
<path d="M6335 6228 c-52 -30 -62 -102 -20 -143 53 -54 145 -16 145 59 0 48
-8 65 -41 81 -33 18 -57 18 -84 3z"/>
<path d="M6791 6214 c-89 -74 21 -206 111 -134 66 51 24 160 -62 160 -10 0
-32 -12 -49 -26z"/>
<path d="M7284 6230 c-28 -11 -54 -48 -54 -77 0 -80 86 -121 147 -69 35 30 39
95 8 126 -24 23 -72 33 -101 20z"/>
<path d="M7754 6230 c-58 -24 -70 -95 -25 -141 40 -40 82 -39 123 1 26 27 30
36 25 67 -4 20 -14 45 -24 55 -22 21 -70 31 -99 18z"/>
<path d="M6546 5969 c-30 -35 -32 -58 -11 -98 27 -54 108 -61 145 -13 72 90
-60 200 -134 111z"/>
<path d="M7032 5984 c-78 -54 -23 -175 71 -157 63 12 89 102 42 148 -28 29
-79 33 -113 9z"/>
<path d="M7496 5979 c-20 -16 -26 -29 -26 -60 0 -52 13 -74 49 -87 62 -22 121
17 121 80 0 77 -83 115 -144 67z"/>
<path d="M6814 5760 c-56 -22 -72 -103 -29 -145 43 -44 124 -26 146 32 15 41
-6 92 -47 109 -38 16 -41 16 -70 4z"/>
<path d="M7284 5760 c-86 -34 -62 -170 29 -170 100 0 129 136 36 169 -37 13
-37 13 -65 1z"/>
<path d="M5321 5670 c-23 -5 -62 -20 -85 -34 -22 -13 -172 -157 -333 -318
-329 -330 -337 -341 -336 -463 1 -167 121 -287 288 -288 123 -1 133 7 468 341
339 338 350 354 350 476 0 54 -6 83 -24 121 -59 124 -194 192 -328 165z"/>
</g>
</svg>
